<svg width="19" height="21" viewBox="0 0 19 21" fill="none" xmlns="http://www.w3.org/2000/svg">
<path d="M5.55144 0.849227C5.17205 0.429901 4.50568 0.381339 4.06305 0.740762L0.368609 3.74076C0.13465 3.93074 0 4.20809 0 4.50002C0 4.79194 0.13465 5.06929 0.368609 5.25927L4.06305 8.25927C4.50568 8.6187 5.17205 8.57014 5.55144 8.15081C5.93083 7.73148 5.87957 7.10018 5.43695 6.74076L3.90899 5.50002H9.76389C13.6989 5.50002 16.8889 8.5221 16.8889 12.25C16.8889 14.7284 15.479 16.8948 13.3776 18.0686C12.8852 18.3437 12.6177 18.9029 12.8164 19.4106C13.0236 19.94 13.6546 20.2082 14.1779 19.938C17.0507 18.4545 19 15.5679 19 12.25C19 7.41753 14.8649 3.50002 9.76389 3.50002H3.90899L5.43695 2.25927C5.87957 1.89985 5.93083 1.26855 5.55144 0.849227Z" fill="#FEFEFF"/>
<path d="M3.84297 11.8703V19.6297H1.90712V14.1564L0 14.74V13.1999L3.6649 11.8703H3.84297Z" fill="#FEFEFF"/>
<path d="M11 15.4499V16.0501C11 16.6798 10.9292 17.2273 10.7875 17.6925C10.6496 18.1578 10.4505 18.5428 10.19 18.8476C9.93347 19.1524 9.6271 19.379 9.27095 19.5274C8.9148 19.6758 8.52227 19.75 8.09336 19.75C7.7487 19.75 7.42701 19.7039 7.12831 19.6116C6.8296 19.5154 6.55962 19.371 6.31835 19.1785C6.08092 18.982 5.87604 18.7373 5.70371 18.4445C5.53138 18.1517 5.39926 17.8068 5.30735 17.4098C5.21544 17.0087 5.16948 16.5555 5.16948 16.0501V15.4499C5.16948 14.8162 5.23841 14.2687 5.37628 13.8075C5.51797 13.3422 5.71903 12.9572 5.97944 12.6524C6.23985 12.3476 6.54813 12.121 6.90428 11.9726C7.26043 11.8242 7.65296 11.75 8.08187 11.75C8.42653 11.75 8.7463 11.7981 9.04118 11.8944C9.33988 11.9866 9.60987 12.131 9.85113 12.3275C10.0924 12.5201 10.2973 12.7627 10.4658 13.0555C10.6381 13.3483 10.7702 13.6952 10.8621 14.0963C10.954 14.4933 11 14.9445 11 15.4499ZM9.06415 16.2968V15.1912C9.06415 14.9104 9.04884 14.6658 9.0182 14.4572C8.99139 14.2487 8.94927 14.0722 8.89182 13.9278C8.83821 13.7834 8.77119 13.6671 8.69077 13.5789C8.61035 13.4866 8.51844 13.4205 8.41504 13.3803C8.31547 13.3362 8.20442 13.3142 8.08187 13.3142C7.92869 13.3142 7.79082 13.3483 7.66828 13.4164C7.54956 13.4806 7.44808 13.5849 7.36383 13.7293C7.27957 13.8737 7.21447 14.0662 7.16852 14.3068C7.12639 14.5475 7.10533 14.8422 7.10533 15.1912V16.2968C7.10533 16.5816 7.11873 16.8302 7.14554 17.0428C7.17618 17.2513 7.2183 17.4298 7.27192 17.5782C7.32936 17.7226 7.39829 17.8409 7.47871 17.9332C7.55913 18.0214 7.65104 18.0856 7.75444 18.1257C7.85784 18.1658 7.97081 18.1858 8.09336 18.1858C8.24271 18.1858 8.37675 18.1537 8.49546 18.0896C8.61418 18.0254 8.71566 17.9211 8.79991 17.7767C8.88799 17.6283 8.9531 17.4338 8.99522 17.1932C9.04118 16.9485 9.06415 16.6497 9.06415 16.2968Z" fill="#FEFEFF"/>
</svg>
