<svg width="24" height="18" viewBox="0 0 24 18" fill="none" xmlns="http://www.w3.org/2000/svg">
<path fill-rule="evenodd" clip-rule="evenodd" d="M0 3C0 1.34315 1.34315 0 3 0H21C22.6569 0 24 1.34315 24 3V15C24 16.6569 22.6569 18 21 18H3C1.34314 18 0 16.6569 0 15V3ZM3 2C2.44772 2 2 2.44772 2 3V15C2 15.5523 2.44772 16 3 16H21C21.5523 16 22 15.5523 22 15V3C22 2.44772 21.5523 2 21 2H3Z" />
<path d="M9.60687 10.5179C9.62908 10.388 9.73624 10.2852 9.86803 10.2852H11.2767C11.4206 10.2852 11.5358 10.4066 11.5151 10.549C11.4528 10.9763 11.3007 11.3604 11.0589 11.7014C10.7723 12.1075 10.3738 12.4264 9.86339 12.658C9.35299 12.886 8.74639 13 8.0436 13C7.48216 13 6.97961 12.9127 6.53595 12.7381C6.09229 12.5636 5.71537 12.3142 5.40521 11.99C5.09896 11.6622 4.86339 11.2685 4.69849 10.809C4.53752 10.3458 4.45703 9.82387 4.45703 9.24315V8.76754C4.45703 8.18682 4.54144 7.66489 4.71027 7.20174C4.8791 6.73859 5.12056 6.34313 5.43465 6.01536C5.74875 5.6876 6.12566 5.43643 6.56539 5.26186C7.00513 5.08729 7.4959 5 8.03771 5C8.76799 5 9.3844 5.11935 9.88695 5.35805C10.3895 5.59675 10.7782 5.92452 11.053 6.34135C11.2832 6.68549 11.437 7.06969 11.5146 7.49397C11.5413 7.63974 11.4248 7.7682 11.2766 7.7682H9.87697C9.74393 7.7682 9.63601 7.66362 9.61637 7.53204C9.58628 7.33051 9.53121 7.15451 9.45114 7.00401C9.34121 6.79381 9.17238 6.63527 8.94466 6.52839C8.71694 6.42151 8.41463 6.36807 8.03771 6.36807C7.76288 6.36807 7.52142 6.41438 7.31333 6.50701C7.10917 6.59964 6.93838 6.74393 6.80097 6.93988C6.66747 7.13583 6.56736 7.38521 6.50061 7.68804C6.43387 7.98731 6.40049 8.34358 6.40049 8.75685V9.24315C6.40049 9.65286 6.42994 10.0073 6.48883 10.3066C6.54773 10.6059 6.64195 10.8535 6.77152 11.0494C6.90501 11.2454 7.0758 11.3914 7.28389 11.4876C7.49197 11.5838 7.74521 11.6319 8.0436 11.6319C8.38518 11.6319 8.66983 11.5838 8.89755 11.4876C9.12527 11.3879 9.29998 11.2383 9.4217 11.0387C9.51074 10.8928 9.57246 10.7192 9.60687 10.5179Z" />
<path d="M17.5103 10.5179C17.5325 10.388 17.6397 10.2852 17.7714 10.2852H19.1801C19.324 10.2852 19.4393 10.4066 19.4185 10.549C19.3562 10.9763 19.2041 11.3604 18.9623 11.7014C18.6757 12.1075 18.2772 12.4264 17.7668 12.658C17.2564 12.886 16.6498 13 15.947 13C15.3856 13 14.883 12.9127 14.4394 12.7381C13.9957 12.5636 13.6188 12.3142 13.3086 11.99C13.0024 11.6622 12.7668 11.2685 12.6019 10.809C12.4409 10.3458 12.3604 9.82387 12.3604 9.24315V8.76754C12.3604 8.18682 12.4449 7.66489 12.6137 7.20174C12.7825 6.73859 13.024 6.34313 13.3381 6.01536C13.6522 5.6876 14.0291 5.43643 14.4688 5.26186C14.9085 5.08729 15.3993 5 15.9411 5C16.6714 5 17.2878 5.11935 17.7904 5.35805C18.2929 5.59675 18.6816 5.92452 18.9564 6.34135C19.1866 6.68549 19.3405 7.06969 19.4181 7.49397C19.4447 7.63974 19.3282 7.7682 19.18 7.7682H17.7804C17.6473 7.7682 17.5394 7.66362 17.5198 7.53204C17.4897 7.33051 17.4346 7.15451 17.3546 7.00401C17.2446 6.79381 17.0758 6.63527 16.8481 6.52839C16.6204 6.42151 16.318 6.36807 15.9411 6.36807C15.6663 6.36807 15.4248 6.41438 15.2167 6.50701C15.0126 6.59964 14.8418 6.74393 14.7044 6.93988C14.5709 7.13583 14.4708 7.38521 14.404 7.68804C14.3373 7.98731 14.3039 8.34358 14.3039 8.75685V9.24315C14.3039 9.65286 14.3334 10.0073 14.3922 10.3066C14.4511 10.6059 14.5454 10.8535 14.6749 11.0494C14.8084 11.2454 14.9792 11.3914 15.1873 11.4876C15.3954 11.5838 15.6486 11.6319 15.947 11.6319C16.2886 11.6319 16.5732 11.5838 16.801 11.4876C17.0287 11.3879 17.2034 11.2383 17.3251 11.0387C17.4142 10.8928 17.4759 10.7192 17.5103 10.5179Z" />
</svg>
