<svg width="24" height="18" viewBox="0 0 24 18" xmlns="http://www.w3.org/2000/svg">
<path fill-rule="evenodd" clip-rule="evenodd" d="M0 3C0 1.34315 1.34315 0 3 0H21C22.6569 0 24 1.34315 24 3V15C24 16.6569 22.6569 18 21 18H3C1.34314 18 0 16.6569 0 15V3ZM3 2C2.44772 2 2 2.44772 2 3V15C2 15.5523 2.44772 16 3 16H21C21.5523 16 22 15.5523 22 15V3C22 2.44772 21.5523 2 21 2H3ZM4.5 6.5C4.5 5.94772 4.94772 5.5 5.5 5.5H16.5C17.0523 5.5 17.5 5.94772 17.5 6.5C17.5 7.05228 17.0523 7.5 16.5 7.5H5.5C4.94772 7.5 4.5 7.05228 4.5 6.5ZM4.5 11C4.5 10.4477 4.94772 10 5.5 10H12.5C13.0523 10 13.5 10.4477 13.5 11C13.5 11.5523 13.0523 12 12.5 12H5.5C4.94772 12 4.5 11.5523 4.5 11Z"/>
</svg>
