<svg width="19" height="21" viewBox="0 0 19 21" xmlns="http://www.w3.org/2000/svg">
<path d="M13.4486 0.849227C13.828 0.429901 14.4943 0.381339 14.9369 0.740762L18.6314 3.74076C18.8654 3.93074 19 4.20809 19 4.50002C19 4.79194 18.8654 5.06929 18.6314 5.25927L14.9369 8.25927C14.4943 8.6187 13.828 8.57014 13.4486 8.15081C13.0692 7.73148 13.1204 7.10018 13.5631 6.74076L15.091 5.50002H9.23611C5.30108 5.50002 2.11111 8.5221 2.11111 12.25C2.11111 14.7284 3.521 16.8948 5.62239 18.0686C6.11477 18.3437 6.38229 18.9029 6.18358 19.4106C5.9764 19.94 5.34544 20.2082 4.82213 19.938C1.9493 18.4545 0 15.5679 0 12.25C0 7.41753 4.13515 3.50002 9.23611 3.50002H15.091L13.5631 2.25927C13.1204 1.89985 13.0692 1.26855 13.4486 0.849227Z" />
<path d="M11.343 11.8703V19.6297H9.40712V14.1564L7.5 14.74V13.1999L11.1649 11.8703H11.343Z" />
<path d="M18.5 15.4499V16.0501C18.5 16.6798 18.4292 17.2273 18.2875 17.6925C18.1496 18.1578 17.9505 18.5428 17.69 18.8476C17.4335 19.1524 17.1271 19.379 16.771 19.5274C16.4148 19.6758 16.0223 19.75 15.5934 19.75C15.2487 19.75 14.927 19.7039 14.6283 19.6116C14.3296 19.5154 14.0596 19.371 13.8184 19.1785C13.5809 18.982 13.376 18.7373 13.2037 18.4445C13.0314 18.1517 12.8993 17.8068 12.8073 17.4098C12.7154 17.0087 12.6695 16.5555 12.6695 16.0501V15.4499C12.6695 14.8162 12.7384 14.2687 12.8763 13.8075C13.018 13.3422 13.219 12.9572 13.4794 12.6524C13.7398 12.3476 14.0481 12.121 14.4043 11.9726C14.7604 11.8242 15.153 11.75 15.5819 11.75C15.9265 11.75 16.2463 11.7981 16.5412 11.8944C16.8399 11.9866 17.1099 12.131 17.3511 12.3275C17.5924 12.5201 17.7973 12.7627 17.9658 13.0555C18.1381 13.3483 18.2702 13.6952 18.3621 14.0963C18.454 14.4933 18.5 14.9445 18.5 15.4499ZM16.5642 16.2968V15.1912C16.5642 14.9104 16.5488 14.6658 16.5182 14.4572C16.4914 14.2487 16.4493 14.0722 16.3918 13.9278C16.3382 13.7834 16.2712 13.6671 16.1908 13.5789C16.1103 13.4866 16.0184 13.4205 15.915 13.3803C15.8155 13.3362 15.7044 13.3142 15.5819 13.3142C15.4287 13.3142 15.2908 13.3483 15.1683 13.4164C15.0496 13.4806 14.9481 13.5849 14.8638 13.7293C14.7796 13.8737 14.7145 14.0662 14.6685 14.3068C14.6264 14.5475 14.6053 14.8422 14.6053 15.1912V16.2968C14.6053 16.5816 14.6187 16.8302 14.6455 17.0428C14.6762 17.2513 14.7183 17.4298 14.7719 17.5782C14.8294 17.7226 14.8983 17.8409 14.9787 17.9332C15.0591 18.0214 15.151 18.0856 15.2544 18.1257C15.3578 18.1658 15.4708 18.1858 15.5934 18.1858C15.7427 18.1858 15.8767 18.1537 15.9955 18.0896C16.1142 18.0254 16.2157 17.9211 16.2999 17.7767C16.388 17.6283 16.4531 17.4338 16.4952 17.1932C16.5412 16.9485 16.5642 16.6497 16.5642 16.2968Z" />
</svg>
