<svg width="20" height="20" viewBox="0 0 20 20" xmlns="http://www.w3.org/2000/svg">
<path fill-rule="evenodd" clip-rule="evenodd" d="M13 2.55176C12.4477 2.55176 12 2.10404 12 1.55176C12 0.999473 12.4477 0.551758 13 0.551758H19C19.5523 0.551758 20 0.999473 20 1.55176V7.55176C20 8.10404 19.5523 8.55176 19 8.55176C18.4477 8.55176 18 8.10404 18 7.55176V3.96597L12.7071 9.25886C12.3166 9.64939 11.6834 9.64939 11.2929 9.25886C10.9024 8.86834 10.9024 8.23518 11.2929 7.84465L16.5858 2.55176H13Z"/>
<path fill-rule="evenodd" clip-rule="evenodd" d="M0 7.55176C0 5.89491 1.34314 4.55176 3 4.55176H8.72727C9.27956 4.55176 9.72727 4.99947 9.72727 5.55176C9.72727 6.10404 9.27956 6.55176 8.72727 6.55176H3C2.44771 6.55176 2 6.99947 2 7.55176V16.5518C2 17.104 2.44772 17.5518 3 17.5518H14C14.5523 17.5518 15 17.104 15 16.5518V11.5518C15 10.9995 15.4477 10.5518 16 10.5518C16.5523 10.5518 17 10.9995 17 11.5518V16.5518C17 18.2086 15.6569 19.5518 14 19.5518H3C1.34315 19.5518 0 18.2086 0 16.5518V7.55176Z"/>
</svg>
