<svg width="24" height="24" viewBox="0 0 24 24" xmlns="http://www.w3.org/2000/svg">
    <path d="M1.87868 3.79081C2.44129 3.28446 3.20435 3 4 3H8C8.55228 3 9 3.40294 9 3.9C9 4.39706 8.55228 4.8 8 4.8H4C3.73478 4.8 3.48043 4.89482 3.29289 5.0636C3.10536 5.23239 3 5.4613 3 5.7V18.3C3 18.5387 3.10536 18.7676 3.29289 18.9364C3.48043 19.1052 3.73478 19.2 4 19.2H8C8.55228 19.2 9 19.6029 9 20.1C9 20.5971 8.55228 21 8 21H4C3.20435 21 2.44129 20.7155 1.87868 20.2092C1.31607 19.7028 1 19.0161 1 18.3V5.7C1 4.98392 1.31607 4.29716 1.87868 3.79081Z" />
    <path d="M22.1213 20.2092C21.5587 20.7155 20.7956 21 20 21H16C15.4477 21 15 20.5971 15 20.1C15 19.6029 15.4477 19.2 16 19.2H20C20.2652 19.2 20.5196 19.1052 20.7071 18.9364C20.8946 18.7676 21 18.5387 21 18.3L21 5.7C21 5.46131 20.8946 5.23239 20.7071 5.06361C20.5196 4.89482 20.2652 4.8 20 4.8L16 4.8C15.4477 4.8 15 4.39706 15 3.9C15 3.40295 15.4477 3 16 3L20 3C20.7956 3 21.5587 3.28446 22.1213 3.79081C22.6839 4.29716 23 4.98391 23 5.7L23 18.3C23 19.0161 22.6839 19.7028 22.1213 20.2092Z" />
    <path fill-rule="evenodd" clip-rule="evenodd" d="M12 1C12.5523 1 13 1.44772 13 2V22C13 22.5523 12.5523 23 12 23C11.4477 23 11 22.5523 11 22V2C11 1.44772 11.4477 1 12 1Z" />
</svg>
