<svg width="24" height="24" viewBox="0 0 24 24" xmlns="http://www.w3.org/2000/svg">
    <path fill-rule="evenodd" clip-rule="evenodd" d="M0 6C0 4.34315 1.34315 3 3 3H21C22.6569 3 24 4.34315 24 6V18C24 19.6569 22.6569 21 21 21H3C1.34314 21 0 19.6569 0 18V6ZM3 5C2.44772 5 2 5.44772 2 6V18C2 18.5523 2.44772 19 3 19H21C21.5523 19 22 18.5523 22 18V6C22 5.44772 21.5523 5 21 5H3Z" />
    <path d="M9.60687 13.5179C9.62908 13.388 9.73624 13.2852 9.86803 13.2852H11.2767C11.4206 13.2852 11.5358 13.4066 11.5151 13.549C11.4528 13.9763 11.3007 14.3604 11.0589 14.7014C10.7723 15.1075 10.3738 15.4264 9.86339 15.658C9.35299 15.886 8.74639 16 8.0436 16C7.48216 16 6.97961 15.9127 6.53595 15.7381C6.09229 15.5636 5.71537 15.3142 5.40521 14.99C5.09896 14.6622 4.86339 14.2685 4.69849 13.809C4.53752 13.3458 4.45703 12.8239 4.45703 12.2432V11.7675C4.45703 11.1868 4.54144 10.6649 4.71027 10.2017C4.8791 9.73859 5.12056 9.34313 5.43465 9.01536C5.74875 8.6876 6.12566 8.43643 6.56539 8.26186C7.00513 8.08729 7.4959 8 8.03771 8C8.76799 8 9.3844 8.11935 9.88695 8.35805C10.3895 8.59675 10.7782 8.92452 11.053 9.34135C11.2832 9.68549 11.437 10.0697 11.5146 10.494C11.5413 10.6397 11.4248 10.7682 11.2766 10.7682H9.87697C9.74393 10.7682 9.63601 10.6636 9.61637 10.532C9.58628 10.3305 9.53121 10.1545 9.45114 10.004C9.34121 9.79381 9.17238 9.63527 8.94466 9.52839C8.71694 9.42151 8.41463 9.36807 8.03771 9.36807C7.76288 9.36807 7.52142 9.41438 7.31333 9.50701C7.10917 9.59964 6.93838 9.74393 6.80097 9.93988C6.66747 10.1358 6.56736 10.3852 6.50061 10.688C6.43387 10.9873 6.40049 11.3436 6.40049 11.7568V12.2432C6.40049 12.6529 6.42994 13.0073 6.48883 13.3066C6.54773 13.6059 6.64195 13.8535 6.77152 14.0494C6.90501 14.2454 7.0758 14.3914 7.28389 14.4876C7.49197 14.5838 7.74521 14.6319 8.0436 14.6319C8.38518 14.6319 8.66983 14.5838 8.89755 14.4876C9.12527 14.3879 9.29998 14.2383 9.4217 14.0387C9.51074 13.8928 9.57246 13.7192 9.60687 13.5179Z" />
    <path d="M17.5103 13.5179C17.5325 13.388 17.6397 13.2852 17.7714 13.2852H19.1801C19.324 13.2852 19.4393 13.4066 19.4185 13.549C19.3562 13.9763 19.2041 14.3604 18.9623 14.7014C18.6757 15.1075 18.2772 15.4264 17.7668 15.658C17.2564 15.886 16.6498 16 15.947 16C15.3856 16 14.883 15.9127 14.4394 15.7381C13.9957 15.5636 13.6188 15.3142 13.3086 14.99C13.0024 14.6622 12.7668 14.2685 12.6019 13.809C12.4409 13.3458 12.3604 12.8239 12.3604 12.2432V11.7675C12.3604 11.1868 12.4449 10.6649 12.6137 10.2017C12.7825 9.73859 13.024 9.34313 13.3381 9.01536C13.6522 8.6876 14.0291 8.43643 14.4688 8.26186C14.9085 8.08729 15.3993 8 15.9411 8C16.6714 8 17.2878 8.11935 17.7904 8.35805C18.2929 8.59675 18.6816 8.92452 18.9564 9.34135C19.1866 9.68549 19.3405 10.0697 19.4181 10.494C19.4447 10.6397 19.3282 10.7682 19.18 10.7682H17.7804C17.6473 10.7682 17.5394 10.6636 17.5198 10.532C17.4897 10.3305 17.4346 10.1545 17.3546 10.004C17.2446 9.79381 17.0758 9.63527 16.8481 9.52839C16.6204 9.42151 16.318 9.36807 15.9411 9.36807C15.6663 9.36807 15.4248 9.41438 15.2167 9.50701C15.0126 9.59964 14.8418 9.74393 14.7044 9.93988C14.5709 10.1358 14.4708 10.3852 14.404 10.688C14.3373 10.9873 14.3039 11.3436 14.3039 11.7568V12.2432C14.3039 12.6529 14.3334 13.0073 14.3922 13.3066C14.4511 13.6059 14.5454 13.8535 14.6749 14.0494C14.8084 14.2454 14.9792 14.3914 15.1873 14.4876C15.3954 14.5838 15.6486 14.6319 15.947 14.6319C16.2886 14.6319 16.5732 14.5838 16.801 14.4876C17.0287 14.3879 17.2034 14.2383 17.3251 14.0387C17.4142 13.8928 17.4759 13.7192 17.5103 13.5179Z" />
</svg>
