<svg width="24" height="24" viewBox="0 0 24 24" xmlns="http://www.w3.org/2000/svg">
    <path fill-rule="evenodd" clip-rule="evenodd" d="M15 4C14.4477 4 14 3.55228 14 3C14 2.44772 14.4477 2 15 2H21C21.5523 2 22 2.44772 22 3V9C22 9.55228 21.5523 10 21 10C20.4477 10 20 9.55228 20 9V5.41421L14.7071 10.7071C14.3166 11.0976 13.6834 11.0976 13.2929 10.7071C12.9024 10.3166 12.9024 9.68342 13.2929 9.29289L18.5858 4H15Z" />
    <path fill-rule="evenodd" clip-rule="evenodd" d="M2 9C2 7.34315 3.34314 6 5 6H10.7273C11.2796 6 11.7273 6.44772 11.7273 7C11.7273 7.55228 11.2796 8 10.7273 8H5C4.44771 8 4 8.44771 4 9V18C4 18.5523 4.44772 19 5 19H16C16.5523 19 17 18.5523 17 18V13C17 12.4477 17.4477 12 18 12C18.5523 12 19 12.4477 19 13V18C19 19.6569 17.6569 21 16 21H5C3.34315 21 2 19.6569 2 18V9Z" />
</svg>
