<svg width="24" height="24" viewBox="0 0 24 24" xmlns="http://www.w3.org/2000/svg">
    <path fill-rule="evenodd" clip-rule="evenodd" d="M2.8723 5.00778C2.38074 5.06981 2 5.4911 2 5.99981V17.9998C2 18.5252 2.40582 18.9567 2.92038 18.9967C2.92189 18.9967 2.92584 18.9967 2.93265 18.9962C2.94526 18.9954 2.96387 18.9934 2.99167 18.9893L6.03618 18.4672C6.01236 18.3149 6 18.1588 6 17.9998V5.99981C6 5.91008 6.00394 5.82128 6.01165 5.73356L3.01157 5.03335L2.99632 5.02967C2.9461 5.01711 2.91278 5.01142 2.89094 5.00907C2.88078 5.00798 2.87477 5.0078 2.8723 5.00778ZM8.13044 5.50576C8.13254 5.50216 8.13463 5.49856 8.13669 5.49493C8.28996 5.23331 8.55856 5.04737 8.8723 5.00778C8.87477 5.0078 8.88078 5.00798 8.89094 5.00907C8.91278 5.01142 8.9461 5.01711 8.99632 5.02967L9.01157 5.03335L12.0116 5.73356C12.0039 5.82128 12 5.91008 12 5.99981V17.9998C12 18.1588 12.0124 18.3149 12.0362 18.4672L8.99167 18.9893C8.96387 18.9934 8.94526 18.9954 8.93264 18.9962C8.92583 18.9967 8.92187 18.9967 8.92037 18.9967C8.63967 18.9749 8.39133 18.8366 8.22358 18.63C8.21896 18.6241 8.21429 18.6182 8.20955 18.6124C8.07823 18.4431 8 18.2305 8 17.9998V5.99981C8 5.82025 8.04744 5.65158 8.13044 5.50576ZM7.09242 20.3153L3.32019 20.9622L3.30323 20.9649C3.16947 20.9855 2.98223 21.0071 2.77165 20.9912C1.22097 20.8739 0 19.5799 0 17.9998V5.99981C0 4.46701 1.14866 3.204 2.63265 3.02218C2.96621 2.98131 3.26346 3.03541 3.4732 3.08734L6.87575 3.88148C7.33742 3.4187 7.9495 3.10588 8.63265 3.02218C8.9662 2.98131 9.26345 3.03541 9.47319 3.08734L12.8757 3.88148C13.3374 3.4187 13.9495 3.10588 14.6326 3.02218C14.9706 2.98077 15.2712 3.03684 15.4814 3.08938L21.7276 4.65093C23.0631 4.98481 24 6.18476 24 7.56136V16.4383C24 17.8149 23.0631 19.0148 21.7276 19.3487L15.4814 20.9102C15.2712 20.9628 14.9706 21.0188 14.6326 20.9774C14.0516 20.9062 13.5219 20.6693 13.0925 20.3152L9.32019 20.9622L9.30323 20.9649C9.16947 20.9855 8.98223 21.0071 8.77165 20.9912C8.13605 20.9431 7.55585 20.6974 7.09242 20.3153ZM14.2238 18.6303C14.3819 18.8249 14.6115 18.9589 14.8723 18.9918C14.8748 18.9918 14.8808 18.9916 14.8909 18.9905C14.9128 18.9882 14.9461 18.9825 14.9963 18.97L21.2425 17.4084C21.6877 17.2971 22 16.8971 22 16.4383V7.56136C22 7.10249 21.6877 6.70251 21.2425 6.59122L14.9963 5.02967C14.9461 5.01711 14.9128 5.01142 14.8909 5.00907C14.8808 5.00798 14.8748 5.0078 14.8723 5.00778C14.5586 5.04737 14.29 5.2333 14.1367 5.49491C14.1346 5.49855 14.1325 5.50217 14.1304 5.50578C14.0474 5.6516 14 5.82026 14 5.99981V17.9998C14 18.2303 14.0782 18.4429 14.2094 18.6122C14.2143 18.6182 14.2191 18.6242 14.2238 18.6303Z" />
</svg>
