<svg width="24" height="24" viewBox="0 0 24 24" xmlns="http://www.w3.org/2000/svg">
    <path fill-rule="evenodd" clip-rule="evenodd" d="M0 6C0 4.34315 1.34315 3 3 3H21C22.6569 3 24 4.34315 24 6V18C24 19.6569 22.6569 21 21 21H3C1.34314 21 0 19.6569 0 18V6ZM3 5C2.44772 5 2 5.44772 2 6V18C2 18.5523 2.44772 19 3 19H21C21.5523 19 22 18.5523 22 18V6C22 5.44772 21.5523 5 21 5H3ZM4.5 9.5C4.5 8.94772 4.94772 8.5 5.5 8.5H16.5C17.0523 8.5 17.5 8.94772 17.5 9.5C17.5 10.0523 17.0523 10.5 16.5 10.5H5.5C4.94772 10.5 4.5 10.0523 4.5 9.5ZM4.5 14C4.5 13.4477 4.94772 13 5.5 13H12.5C13.0523 13 13.5 13.4477 13.5 14C13.5 14.5523 13.0523 15 12.5 15H5.5C4.94772 15 4.5 14.5523 4.5 14Z" />
</svg>
