<svg width="24" height="24" viewBox="0 0 24 24" xmlns="http://www.w3.org/2000/svg">
    <path fill-rule="evenodd" clip-rule="evenodd" d="M0 4.5C0 3.39543 0.89543 2.5 2 2.5H15C16.1046 2.5 17 3.39543 17 4.5V8.5H15V5C15 4.72386 14.7761 4.5 14.5 4.5H2.5C2.22386 4.5 2 4.72386 2 5V12C2 12.2761 2.22386 12.5 2.5 12.5H6V14.5H2C0.895431 14.5 0 13.6046 0 12.5V4.5ZM7 11.5C7 10.3954 7.89543 9.5 9 9.5H22C23.1046 9.5 24 10.3954 24 11.5V19.5C24 20.6046 23.1046 21.5 22 21.5H9C7.89543 21.5 7 20.6046 7 19.5V11.5ZM22 12C22 11.7239 21.7761 11.5 21.5 11.5H9.5C9.22386 11.5 9 11.7239 9 12V19C9 19.2761 9.22386 19.5 9.5 19.5H21.5C21.7761 19.5 22 19.2761 22 19V12Z" />
</svg>
